<?xml version="1.0" encoding="utf-8"?>
<!-- Generator: Adobe Illustrator 16.0.0, SVG Export Plug-In . SVG Version: 6.00 Build 0)  -->
<!DOCTYPE svg PUBLIC "-//W3C//DTD SVG 1.1//EN" "http://www.w3.org/Graphics/SVG/1.1/DTD/svg11.dtd" [
	<!ENTITY ns_flows "http://ns.adobe.com/Flows/1.0/">
	<!ENTITY ns_extend "http://ns.adobe.com/Extensibility/1.0/">
	<!ENTITY ns_ai "http://ns.adobe.com/AdobeIllustrator/10.0/">
	<!ENTITY ns_graphs "http://ns.adobe.com/Graphs/1.0/">
	<!ENTITY ns_vars "http://ns.adobe.com/Variables/1.0/">
	<!ENTITY ns_imrep "http://ns.adobe.com/ImageReplacement/1.0/">
	<!ENTITY ns_sfw "http://ns.adobe.com/SaveForWeb/1.0/">
	<!ENTITY ns_custom "http://ns.adobe.com/GenericCustomNamespace/1.0/">
	<!ENTITY ns_adobe_xpath "http://ns.adobe.com/XPath/1.0/">
]>
<svg version="1.1" id="圖層_1" xmlns:x="&ns_extend;" xmlns:i="&ns_ai;" xmlns:graph="&ns_graphs;"
	 xmlns="http://www.w3.org/2000/svg" xmlns:xlink="http://www.w3.org/1999/xlink" xmlns:a="http://ns.adobe.com/AdobeSVGViewerExtensions/3.0/"
	 x="0px" y="0px" width="708.662px" height="141.732px" viewBox="0 0 708.662 141.732" enable-background="new 0 0 708.662 141.732"
	 xml:space="preserve">
<metadata>
	<sfw  xmlns="&ns_sfw;">
		<slices></slices>
		<sliceSourceBounds  height="75.828" width="607.82" x="-20.353" y="-179.416" bottomLeftOrigin="true"></sliceSourceBounds>
	</sfw>
</metadata>
<g>
	<path fill="#FFFFFF" d="M102.287,104.958c-3.242,1.743-9.727,3.486-18.034,3.486c-19.251,0-33.739-13.074-33.739-37.151
		c0-22.988,14.488-38.567,35.664-38.567c8.511,0,13.881,1.961,16.211,3.269l-2.128,7.735c-3.343-1.743-8.105-3.051-13.779-3.051
		c-16.008,0-26.646,11.004-26.646,30.287c0,17.977,9.625,29.525,26.241,29.525c5.37,0,10.841-1.198,14.388-3.051L102.287,104.958z"
		/>
	<path fill="#FFFFFF" d="M171.59,69.876c0,25.275-14.286,38.676-31.712,38.676c-18.035,0-30.7-15.034-30.7-37.26
		c0-23.315,13.475-38.567,31.712-38.567C159.533,32.725,171.59,48.086,171.59,69.876z M118.6,71.075
		c0,15.688,7.903,29.743,21.784,29.743c13.982,0,21.885-13.837,21.885-30.506c0-14.599-7.092-29.852-21.784-29.852
		C125.895,40.46,118.6,54.95,118.6,71.075z"/>
	<path fill="#FFFFFF" d="M242.616,75.106c-0.507-10.241-1.114-22.553-1.013-31.704h-0.304c-2.33,8.607-5.167,17.759-8.612,27.891
		l-12.057,35.626h-6.687l-11.044-34.972c-3.242-10.35-5.978-19.829-7.903-28.544h-0.203c-0.203,9.151-0.709,21.463-1.317,32.467
		l-1.823,31.485h-8.41l4.762-73.431h11.246l11.651,35.517c2.837,9.042,5.167,17.105,6.89,24.731h0.304
		c1.722-7.408,4.154-15.471,7.194-24.731l12.158-35.517h11.246l4.255,73.431h-8.612L242.616,75.106z"/>
	<path fill="#FFFFFF" d="M268.555,34.795c4.255-0.763,9.828-1.417,16.92-1.417c8.713,0,15.096,2.179,19.149,6.102
		c3.749,3.486,5.978,8.824,5.978,15.361c0,6.646-1.824,11.875-5.269,15.688c-4.661,5.339-12.26,8.063-20.872,8.063
		c-2.634,0-5.065-0.109-7.092-0.654v29.416h-8.815V34.795z M277.37,70.203c1.925,0.544,4.356,0.762,7.295,0.762
		c10.638,0,17.123-5.556,17.123-15.688c0-9.696-6.383-14.381-16.11-14.381c-3.85,0-6.788,0.327-8.308,0.763V70.203z"/>
	<path fill="#FFFFFF" d="M359.844,72.927h-26.546v26.474h29.585v7.953h-38.399V33.923h36.88v7.953h-28.065v23.206h26.546V72.927z"/>
	<path fill="#FFFFFF" d="M390.949,41.986h-20.771v-8.063h50.559v8.063h-20.872v65.368h-8.916V41.986z"/>
	<path fill="#FFFFFF" d="M439.177,33.923v73.431h-8.814V33.923H439.177z"/>
	<path fill="#FFFFFF" d="M469.574,41.986h-20.771v-8.063h50.559v8.063H478.49v65.368h-8.916V41.986z"/>
	<path fill="#FFFFFF" d="M517.802,33.923v73.431h-8.814V33.923H517.802z"/>
	<path fill="#FFFFFF" d="M593.589,69.876c0,25.275-14.286,38.676-31.713,38.676c-18.034,0-30.699-15.034-30.699-37.26
		c0-23.315,13.476-38.567,31.713-38.567C581.533,32.725,593.589,48.086,593.589,69.876z M540.6,71.075
		c0,15.688,7.902,29.743,21.783,29.743c13.982,0,21.885-13.837,21.885-30.506c0-14.599-7.092-29.852-21.783-29.852
		C547.895,40.46,540.6,54.95,540.6,71.075z"/>
	<path fill="#FFFFFF" d="M607.067,107.354V33.923h9.625l21.885,37.151c5.065,8.606,9.018,16.342,12.26,23.859l0.202-0.108
		c-0.811-9.806-1.013-18.739-1.013-30.179V33.923h8.308v73.431h-8.916l-21.683-37.26c-4.762-8.171-9.32-16.561-12.766-24.514
		l-0.304,0.109c0.507,9.26,0.709,18.085,0.709,30.287v31.377H607.067z"/>
</g>
</svg>
