<?xml version="1.0" encoding="utf-8"?>
<!-- Generator: Adobe Illustrator 16.0.0, SVG Export Plug-In . SVG Version: 6.00 Build 0)  -->
<!DOCTYPE svg PUBLIC "-//W3C//DTD SVG 1.1//EN" "http://www.w3.org/Graphics/SVG/1.1/DTD/svg11.dtd" [
	<!ENTITY ns_flows "http://ns.adobe.com/Flows/1.0/">
	<!ENTITY ns_extend "http://ns.adobe.com/Extensibility/1.0/">
	<!ENTITY ns_ai "http://ns.adobe.com/AdobeIllustrator/10.0/">
	<!ENTITY ns_graphs "http://ns.adobe.com/Graphs/1.0/">
	<!ENTITY ns_vars "http://ns.adobe.com/Variables/1.0/">
	<!ENTITY ns_imrep "http://ns.adobe.com/ImageReplacement/1.0/">
	<!ENTITY ns_sfw "http://ns.adobe.com/SaveForWeb/1.0/">
	<!ENTITY ns_custom "http://ns.adobe.com/GenericCustomNamespace/1.0/">
	<!ENTITY ns_adobe_xpath "http://ns.adobe.com/XPath/1.0/">
]>
<svg version="1.1" id="圖層_1" xmlns:x="&ns_extend;" xmlns:i="&ns_ai;" xmlns:graph="&ns_graphs;"
	 xmlns="http://www.w3.org/2000/svg" xmlns:xlink="http://www.w3.org/1999/xlink" xmlns:a="http://ns.adobe.com/AdobeSVGViewerExtensions/3.0/"
	 x="0px" y="0px" width="708.661px" height="425.2px" viewBox="0 0 708.661 425.2" enable-background="new 0 0 708.661 425.2"
	 xml:space="preserve">
<metadata>
	<sfw  xmlns="&ns_sfw;">
		<slices></slices>
		<sliceSourceBounds  height="357.73" width="618.621" x="115.885" y="-396.081" bottomLeftOrigin="true"></sliceSourceBounds>
	</sfw>
</metadata>
<g>
	<path fill="#FFFFFF" stroke="#FFFFFF" stroke-miterlimit="10" d="M51.943,167.795c8.078,5.345,19.884,9.799,32.311,9.799
		c18.434,0,29.205-10.467,29.205-25.61c0-14.03-7.457-22.048-26.305-29.842c-22.784-8.685-36.868-21.379-36.868-42.536
		c0-23.384,18.02-40.754,45.153-40.754c14.292,0,24.648,3.563,30.861,7.349l-4.971,15.812c-4.557-2.672-13.877-7.126-26.512-7.126
		c-19.055,0-26.305,12.249-26.305,22.493c0,14.03,8.492,20.934,27.754,28.951c23.612,9.799,35.625,22.048,35.625,44.095
		c0,23.161-15.948,43.204-48.881,43.204c-13.463,0-28.168-4.231-35.625-9.576L51.943,167.795z"/>
	<path fill="#FFFFFF" stroke="#FFFFFF" stroke-miterlimit="10" d="M160.679,43.083c8.699-1.559,20.091-2.895,34.59-2.895
		c17.813,0,30.861,4.454,39.146,12.471c7.664,7.126,12.22,18.039,12.22,31.401c0,13.585-3.728,24.274-10.771,32.069
		c-9.527,10.913-25.062,16.48-42.667,16.48c-5.385,0-10.356-0.223-14.499-1.336v60.129h-18.02V43.083z M178.699,115.46
		c3.935,1.114,8.906,1.559,14.913,1.559c21.748,0,35.004-11.358,35.004-32.069c0-19.821-13.049-29.397-32.933-29.397
		c-7.871,0-13.877,0.668-16.984,1.559V115.46z"/>
	<path fill="#FFFFFF" stroke="#FFFFFF" stroke-miterlimit="10" d="M280.187,144.189l-14.499,47.213h-18.641l47.431-150.101h21.748
		l47.638,150.101h-19.262l-14.913-47.213H280.187z M325.961,129.045l-13.67-43.204c-3.107-9.799-5.178-18.707-7.25-27.393h-0.414
		c-2.071,8.908-4.35,18.039-7.042,27.17l-13.67,43.427H325.961z"/>
	<path fill="#FFFFFF" stroke="#FFFFFF" stroke-miterlimit="10" d="M482.958,186.502c-6.629,3.563-19.885,7.126-36.869,7.126
		c-39.354,0-68.973-26.724-68.973-75.941c0-46.99,29.619-78.836,72.908-78.836c17.398,0,28.375,4.009,33.141,6.681l-4.35,15.812
		c-6.836-3.563-16.57-6.236-28.17-6.236c-32.725,0-54.473,22.493-54.473,61.911c0,36.746,19.676,60.352,53.645,60.352
		c10.979,0,22.162-2.45,29.412-6.235L482.958,186.502z"/>
	<path fill="#FFFFFF" stroke="#FFFFFF" stroke-miterlimit="10" d="M581.956,121.028H527.69v54.116h60.479v16.257h-78.498V41.301
		h75.393v16.257H527.69v47.436h54.266V121.028z"/>
	<path fill="#FFFFFF" stroke="#FFFFFF" stroke-miterlimit="10" d="M45.521,245.258c10.978-1.783,24.026-3.119,38.318-3.119
		c25.89,0,44.324,6.459,56.544,18.707c12.427,12.25,19.677,29.619,19.677,53.895c0,24.498-7.042,44.541-20.091,58.348
		c-13.049,14.031-34.59,21.602-61.723,21.602c-12.842,0-23.612-0.668-32.726-1.781V245.258z M63.541,377.988
		c4.557,0.891,11.185,1.113,18.227,1.113c38.525,0,59.444-23.162,59.444-63.693c0.207-35.41-18.434-57.902-56.544-57.902
		c-9.321,0-16.363,0.891-21.126,2.004V377.988z"/>
	<path fill="#FFFFFF" stroke="#FFFFFF" stroke-miterlimit="10" d="M247.459,322.98h-54.266v54.117h60.479v16.256h-78.5V243.252
		h75.393v16.258h-57.373v47.436h54.266V322.98z"/>
	<path fill="#FFFFFF" stroke="#FFFFFF" stroke-miterlimit="10" d="M274.587,369.748c8.078,5.344,19.884,9.799,32.311,9.799
		c18.434,0,29.205-10.467,29.205-25.611c0-14.029-7.457-22.047-26.305-29.842c-22.784-8.686-36.868-21.379-36.868-42.537
		c0-23.383,18.02-40.754,45.152-40.754c14.292,0,24.648,3.564,30.861,7.35l-4.971,15.813c-4.557-2.674-13.877-7.127-26.512-7.127
		c-19.055,0-26.305,12.248-26.305,22.492c0,14.031,8.492,20.934,27.754,28.951c23.612,9.799,35.625,22.049,35.625,44.096
		c0,23.16-15.948,43.203-48.881,43.203c-13.463,0-28.168-4.23-35.625-9.576L274.587,369.748z"/>
	<path fill="#FFFFFF" stroke="#FFFFFF" stroke-miterlimit="10" d="M393.06,243.252v150.102h-18.021V243.252H393.06z"/>
	<path fill="#FFFFFF" stroke="#FFFFFF" stroke-miterlimit="10" d="M530.794,386.674c-8.078,3.117-24.025,8.238-42.875,8.238
		c-21.125,0-38.523-5.789-52.195-19.82c-12.012-12.471-19.469-32.514-19.469-55.898c0.207-44.762,28.791-77.5,75.6-77.5
		c16.156,0,28.791,3.787,34.797,6.904l-4.35,15.813c-7.457-3.564-16.777-6.459-30.861-6.459c-33.969,0-56.131,22.715-56.131,60.352
		c0,38.082,21.334,60.576,53.854,60.576c11.805,0,19.883-1.781,24.025-4.01v-44.762h-28.375v-15.59h45.98V386.674z"/>
	<path fill="#FFFFFF" stroke="#FFFFFF" stroke-miterlimit="10" d="M558.337,393.354V243.252h19.678l44.738,75.941
		c10.355,17.594,18.434,33.406,25.061,48.773l0.416-0.223c-1.658-20.045-2.072-38.305-2.072-61.689v-62.803h16.984v150.102h-18.227
		l-44.324-76.164c-9.734-16.703-19.057-33.85-26.098-50.107l-0.621,0.223c1.035,18.93,1.449,36.969,1.449,61.912v64.137H558.337z"/>
</g>
</svg>
