<?xml version="1.0" encoding="utf-8"?>
<!-- Generator: Adobe Illustrator 16.0.0, SVG Export Plug-In . SVG Version: 6.00 Build 0)  -->
<!DOCTYPE svg PUBLIC "-//W3C//DTD SVG 1.1//EN" "http://www.w3.org/Graphics/SVG/1.1/DTD/svg11.dtd" [
	<!ENTITY ns_flows "http://ns.adobe.com/Flows/1.0/">
	<!ENTITY ns_extend "http://ns.adobe.com/Extensibility/1.0/">
	<!ENTITY ns_ai "http://ns.adobe.com/AdobeIllustrator/10.0/">
	<!ENTITY ns_graphs "http://ns.adobe.com/Graphs/1.0/">
	<!ENTITY ns_vars "http://ns.adobe.com/Variables/1.0/">
	<!ENTITY ns_imrep "http://ns.adobe.com/ImageReplacement/1.0/">
	<!ENTITY ns_sfw "http://ns.adobe.com/SaveForWeb/1.0/">
	<!ENTITY ns_custom "http://ns.adobe.com/GenericCustomNamespace/1.0/">
	<!ENTITY ns_adobe_xpath "http://ns.adobe.com/XPath/1.0/">
]>
<svg version="1.1" id="圖層_1" xmlns:x="&ns_extend;" xmlns:i="&ns_ai;" xmlns:graph="&ns_graphs;"
	 xmlns="http://www.w3.org/2000/svg" xmlns:xlink="http://www.w3.org/1999/xlink" xmlns:a="http://ns.adobe.com/AdobeSVGViewerExtensions/3.0/"
	 x="0px" y="0px" width="566.929px" height="198.425px" viewBox="0 0 566.929 198.425" enable-background="new 0 0 566.929 198.425"
	 xml:space="preserve">
<metadata>
	<sfw  xmlns="&ns_sfw;">
		<slices></slices>
		<sliceSourceBounds  height="155.778" width="541.859" x="12.175" y="-219.092" bottomLeftOrigin="true"></sliceSourceBounds>
	</sfw>
</metadata>
<g>
	<path fill="#FFFFFF" stroke="#FFFFFF" stroke-miterlimit="10" d="M17.307,150.241c8.078,5.345,19.884,9.799,32.311,9.799
		c18.434,0,29.205-10.467,29.205-25.61c0-14.03-7.457-22.048-26.305-29.842C29.734,95.902,15.65,83.208,15.65,62.051
		c0-23.384,18.02-40.754,45.153-40.754c14.292,0,24.648,3.563,30.861,7.349l-4.971,15.812c-4.557-2.672-13.877-7.126-26.512-7.126
		c-19.055,0-26.305,12.249-26.305,22.493c0,14.03,8.492,20.934,27.754,28.951c23.612,9.799,35.625,22.048,35.625,44.096
		c0,23.16-15.948,43.204-48.881,43.204c-13.463,0-28.168-4.231-35.625-9.576L17.307,150.241z"/>
	<path fill="#FFFFFF" stroke="#FFFFFF" stroke-miterlimit="10" d="M126.043,25.528c8.699-1.559,20.091-2.895,34.59-2.895
		c17.813,0,30.861,4.454,39.146,12.471c7.664,7.126,12.22,18.039,12.22,31.401c0,13.585-3.728,24.274-10.771,32.069
		c-9.527,10.913-25.062,16.48-42.667,16.48c-5.385,0-10.356-0.223-14.499-1.336v60.129h-18.02V25.528z M144.063,97.906
		c3.935,1.114,8.906,1.559,14.913,1.559c21.748,0,35.004-11.358,35.004-32.069c0-19.821-13.049-29.397-32.933-29.397
		c-7.871,0-13.877,0.668-16.984,1.559V97.906z"/>
	<path fill="#FFFFFF" stroke="#FFFFFF" stroke-miterlimit="10" d="M245.551,126.635l-14.499,47.213h-18.641l47.431-150.101h21.748
		l47.638,150.101h-19.262l-14.913-47.213H245.551z M291.325,111.491l-13.67-43.204c-3.107-9.799-5.178-18.707-7.25-27.393h-0.414
		c-2.071,8.908-4.35,18.039-7.042,27.17l-13.67,43.427H291.325z"/>
	<path fill="#FFFFFF" stroke="#FFFFFF" stroke-miterlimit="10" d="M448.321,168.948c-6.628,3.563-19.884,7.127-36.868,7.127
		c-39.354,0-68.972-26.725-68.972-75.942c0-46.99,29.618-78.836,72.907-78.836c17.398,0,28.375,4.009,33.14,6.681l-4.35,15.812
		c-6.835-3.563-16.569-6.236-28.169-6.236c-32.725,0-54.473,22.493-54.473,61.911c0,36.746,19.676,60.352,53.645,60.352
		c10.978,0,22.162-2.449,29.411-6.235L448.321,168.948z"/>
	<path fill="#FFFFFF" stroke="#FFFFFF" stroke-miterlimit="10" d="M547.32,103.474h-54.266v54.117h60.479v16.257h-78.499V23.747
		h75.393v16.257h-57.372v47.436h54.266V103.474z"/>
</g>
</svg>
