<?xml version="1.0" encoding="utf-8"?>
<!-- Generator: Adobe Illustrator 16.0.0, SVG Export Plug-In . SVG Version: 6.00 Build 0)  -->
<!DOCTYPE svg PUBLIC "-//W3C//DTD SVG 1.1//EN" "http://www.w3.org/Graphics/SVG/1.1/DTD/svg11.dtd" [
	<!ENTITY ns_flows "http://ns.adobe.com/Flows/1.0/">
	<!ENTITY ns_extend "http://ns.adobe.com/Extensibility/1.0/">
	<!ENTITY ns_ai "http://ns.adobe.com/AdobeIllustrator/10.0/">
	<!ENTITY ns_graphs "http://ns.adobe.com/Graphs/1.0/">
	<!ENTITY ns_vars "http://ns.adobe.com/Variables/1.0/">
	<!ENTITY ns_imrep "http://ns.adobe.com/ImageReplacement/1.0/">
	<!ENTITY ns_sfw "http://ns.adobe.com/SaveForWeb/1.0/">
	<!ENTITY ns_custom "http://ns.adobe.com/GenericCustomNamespace/1.0/">
	<!ENTITY ns_adobe_xpath "http://ns.adobe.com/XPath/1.0/">
]>
<svg version="1.1" id="圖層_1" xmlns:x="&ns_extend;" xmlns:i="&ns_ai;" xmlns:graph="&ns_graphs;"
	 xmlns="http://www.w3.org/2000/svg" xmlns:xlink="http://www.w3.org/1999/xlink" xmlns:a="http://ns.adobe.com/AdobeSVGViewerExtensions/3.0/"
	 x="0px" y="0px" width="566.93px" height="226.772px" viewBox="0 0 566.93 226.772" enable-background="new 0 0 566.93 226.772"
	 xml:space="preserve">
<metadata>
	<sfw  xmlns="&ns_sfw;">
		<slices></slices>
		<sliceSourceBounds  height="155.914" width="509.157" x="28.66" y="-218.928" bottomLeftOrigin="true"></sliceSourceBounds>
	</sfw>
</metadata>
<g>
	<g>
		<path fill="#FFFFFF" d="M59.46,70.481H38.377c-0.611,6.661-2.384,14.239-6.906,19.861c-0.611-0.733-2.078-2.078-2.811-2.506
			c5.622-7.15,6.355-16.806,6.355-23.895V53.614H59.46V70.481z M50.171,35.708c-0.184,0.428-0.55,0.733-1.284,0.733l-0.061,0.122
			c5.072,3.056,10.878,7.456,13.873,10.389l-2.322,3.117c-2.995-2.994-8.495-7.395-13.445-10.572
			c-1.65,2.322-3.605,4.767-5.867,7.211h14.728v3.117H40.455V47.32c-2.689,2.811-5.806,5.5-9.35,7.944
			c-0.489-0.978-1.65-2.383-2.383-2.994c7.822-5.072,13.505-11.917,16.561-17.417L50.171,35.708z M38.499,91.503V74.392h22.367
			v16.623h-3.728v-2.2H42.104v2.689H38.499z M38.682,63.453c0,1.833,0,2.75-0.061,3.911h17.111v-3.911H38.682z M55.732,56.792
			h-17.05v3.789h17.05V56.792z M57.138,77.631H42.104v7.944h15.033V77.631z M70.155,42.614c-0.061,0.428-0.367,0.733-1.161,0.855v33
			h-3.972V42.309L70.155,42.614z M79.016,36.014l5.256,0.306c-0.122,0.428-0.428,0.733-1.222,0.855v48.828
			c0,5.194-2.322,5.744-13.261,5.622c-0.245-1.1-0.855-2.933-1.528-4.094c2.2,0.061,4.217,0.061,5.806,0.061
			c4.767,0,4.95,0,4.95-1.528V36.014z"/>
		<path fill="#FFFFFF" d="M104.26,79.22c-1.772,4.4-4.522,8.556-9.411,10.938l-3.178-2.261c4.583-2.139,7.578-5.989,9.106-9.961
			L104.26,79.22z M147.405,51.292v3.361H92.038v-3.361h16.378c-0.55-2.017-1.65-4.583-2.872-6.6l3.422-1.039H95.888v-3.361h21.695
			v-5.5l5.316,0.306c-0.061,0.428-0.428,0.733-1.222,0.855v4.339h21.939v3.361h-11.611l2.994,0.978
			c-0.183,0.367-0.611,0.55-1.222,0.55c-0.794,1.711-2.139,4.155-3.3,6.111H147.405z M138.177,57.708V74.82h-21.878
			c3.667,1.345,7.639,3.422,9.839,5.194c-2.017,2.078-2.261,2.445-2.506,2.75c-2.383-1.955-7.272-4.522-11.306-5.989l1.833-1.956
			h-12.833V57.708H138.177z M134.083,64.798v-4.095h-28.784v4.095H134.083z M134.083,71.826V67.67h-28.784v4.156H134.083z
			 M111.838,86.064c0,1.406,0.489,1.65,3.483,1.65h10.45c2.444,0,2.872-0.794,3.117-6.478c0.917,0.611,2.444,1.161,3.544,1.344
			c-0.428,6.906-1.65,8.434-6.294,8.434h-11.123c-5.683,0-7.211-0.917-7.211-4.95V78.67l5.194,0.367
			c-0.061,0.367-0.367,0.672-1.161,0.794V86.064z M126.566,51.231c1.1-2.078,2.566-5.256,3.422-7.578H109.21
			c1.406,2.262,2.75,5.317,3.239,7.334l-0.917,0.305h15.217L126.566,51.231z M144.533,90.037
			c-2.322-3.117-7.333-7.456-11.856-10.328l3.117-2.139c4.4,2.689,9.534,6.906,11.917,10.083L144.533,90.037z"/>
		<path fill="#FFFFFF" d="M157.433,35.342c3.056,2.444,5.378,4.95,7.272,7.517c2.2-2.567,4.155-5.195,5.561-7.7l4.4,2.261
			c-0.244,0.367-0.672,0.489-1.161,0.428c-1.711,2.75-3.972,5.683-6.6,8.495c3.789,6.966,4.4,14.361,4.4,22
			c0,9.228-0.672,17.355-3.3,20.839c-1.039,1.405-2.444,2.444-8.556,2.444c-0.917,0-1.833,0-2.811-0.061
			c-0.061-1.344-0.55-2.933-1.344-4.094c1.711,0.122,3.361,0.183,4.645,0.183c3.361,0,4.339-0.245,5.011-1.283
			c1.772-2.261,2.383-9.656,2.383-18.089c0-1.405,0-2.811-0.061-4.216c-3.239,4.828-7.456,9.594-11.367,12.528
			c-0.672-1.039-1.833-2.383-2.811-3.178c4.889-3.178,10.45-9.534,13.567-15.4c-0.55-2.994-1.345-5.867-2.689-8.678
			c-2.444,2.444-5.133,4.706-7.883,6.722c-0.672-0.794-1.956-2.017-2.873-2.75c3.056-2.139,6.05-4.706,8.8-7.517
			c-1.833-2.811-4.217-5.5-7.456-8.128L157.433,35.342z M194.405,85.331h16.072v3.911h-37.645v-3.911h17.417V65.47H177.11v-3.911
			h13.139V42.981h-14.544V39.07h34.039v3.911h-15.339v18.578h13.444v3.911h-13.444V85.331z"/>
		<path fill="#FFFFFF" d="M232.422,51.537c2.505,1.589,8.8,6.294,10.389,7.639l-2.261,3.3c-1.589-1.589-5.255-4.767-8.127-7.089
			v15.522h-3.973V53.614c-2.811,5.5-6.539,10.511-10.206,13.505c-0.672-0.917-1.833-2.2-2.689-2.872
			c4.583-3.3,9.35-9.961,12.1-16.439h-10.755v-3.667h11.55v-9.167l5.133,0.367c-0.061,0.428-0.366,0.672-1.161,0.794v8.006h9.961
			v3.667h-9.961V51.537z M228.083,76.47c-1.589,4.767-4.216,10.145-8.494,13.322l-3.3-2.384c4.034-2.872,6.784-7.822,8.25-12.405
			L228.083,76.47z M236.699,85.515c0,1.589,0.611,1.894,3.973,1.894h11.855c2.689,0,3.117-0.794,3.422-6.417
			c0.917,0.733,2.627,1.284,3.728,1.528c-0.55,7.028-1.833,8.617-6.783,8.617h-12.467c-6.233,0-7.761-1.1-7.761-5.561V75.309
			l5.256,0.366c-0.062,0.428-0.428,0.733-1.223,0.856V85.515z M248.372,81.726c-2.078-2.75-6.6-6.6-10.511-9.228l2.689-2.139
			c3.972,2.444,8.556,6.233,10.695,8.983L248.372,81.726z M269.211,38.153v32.145h-24.017V38.153H269.211z M265.238,47.748v-6.172
			h-16.194v6.172H265.238z M265.238,57.281v-6.233h-16.194v6.233H265.238z M265.238,66.875v-6.294h-16.194v6.294H265.238z
			 M270.005,89.854c-2.139-3.911-7.272-9.411-12.1-13.2l3.239-2.017c4.889,3.605,10.145,8.922,12.406,12.895L270.005,89.854z"/>
		<path fill="#FFFFFF" d="M296.045,52.086c3.482,1.65,7.761,4.217,9.838,6.233l-2.443,3.361c-2.018-2.078-6.173-4.889-9.717-6.661
			L296.045,52.086z M295.006,88.57c2.506-4.767,6.111-12.895,8.738-19.8l3.239,2.2c-2.322,6.417-5.5,13.994-7.822,18.578
			c0.245,0.367,0.366,0.672,0.366,0.978c0,0.183-0.061,0.428-0.183,0.611L295.006,88.57z M298.795,35.525
			c3.422,1.772,7.517,4.583,9.472,6.722l-2.505,3.239c-1.895-2.2-5.989-5.133-9.412-7.028L298.795,35.525z M330.084,80.014h-9.229
			v11.611h-3.789V80.014h-9.838v-3.667h9.838v-5.5h-7.088V51.109h7.088V45.67h-8.616v-3.606h8.616v-7.211l4.951,0.306
			c-0.062,0.428-0.428,0.733-1.162,0.794v6.111h8.984v3.606h-8.984v5.439h7.395v19.739h-7.395v5.5h9.229V80.014z M313.4,54.348
			v5.072h11.306v-5.072H313.4z M313.4,62.476v5.194h11.306v-5.194H313.4z M347.989,37.236v49.317c0,4.522-1.711,5.194-10.022,5.072
			c-0.184-1.039-0.732-2.872-1.283-3.972c1.527,0.061,2.934,0.061,4.095,0.061c3.116,0,3.483,0,3.483-1.222V70.359h-8.678
			c-0.611,7.517-2.322,15.522-6.783,21.328c-0.673-0.672-2.201-1.833-3.117-2.261c5.928-7.639,6.479-18.761,6.479-27.562V37.236
			H347.989z M335.889,61.864c0,1.467,0,3.056-0.061,4.706h8.434V55.509h-8.373V61.864z M344.262,40.964h-8.373v10.816h8.373V40.964z
			"/>
		<path fill="#FFFFFF" d="M409.595,45.609v40.272c0,2.872-0.673,4.277-2.75,5.011c-2.139,0.672-5.989,0.733-11.673,0.733
			c-0.244-1.222-0.855-3.117-1.527-4.278c2.384,0.061,4.584,0.123,6.417,0.123s3.239-0.062,3.851-0.062
			c1.222,0,1.588-0.366,1.588-1.527V49.642h-41.617v41.983h-4.094V45.609h16.928c1.65-3.3,3.301-7.761,4.277-10.939l5.745,1.283
			c-0.184,0.428-0.611,0.672-1.345,0.672c-1.039,2.628-2.566,6.05-4.094,8.983H409.595z M396.7,78.609h-20.472v4.522h-3.789V58.259
			H396.7V78.609z M392.85,61.987h-16.621v12.895h16.621V61.987z"/>
		<path fill="#FFFFFF" d="M474.195,64.553h-22.551c5.744,8.067,15.34,15.95,24.018,19.8c-1.039,0.855-2.322,2.444-3.057,3.544
			c-8.494-4.217-17.6-12.223-23.711-20.717v24.444h-4.277V67.67c-6.051,8.495-15.033,16.133-23.345,20.411
			c-0.733-1.1-2.078-2.689-2.995-3.544c8.678-3.911,18.15-11.733,23.834-19.983h-22.306v-4.095h24.812V49.214h-20.412v-4.033h20.412
			V34.914l5.561,0.306c-0.061,0.428-0.428,0.733-1.283,0.855v9.106h21.084v4.033h-21.084v11.244h25.301V64.553z"/>
		<path fill="#FFFFFF" d="M511.173,47.687v14.972c5.5,9.533,16.134,18.517,26.645,22.55c-1.038,0.855-2.322,2.505-2.994,3.667
			c-8.739-3.911-17.478-11.122-23.65-19.494v22.244h-4.217V69.503c-6.233,8.189-14.972,15.217-23.345,19.128
			c-0.672-1.039-1.955-2.567-2.934-3.422c10.023-4.156,20.534-12.956,26.278-22.184V47.687h-24.2v-4.034h24.2v-8.739l5.438,0.306
			c-0.061,0.428-0.366,0.733-1.222,0.855v7.578h24.934v4.034H511.173z M499.745,67.487c-1.405-1.65-3.789-4.095-6.173-6.356
			c-2.139,4.095-4.949,7.517-8.188,9.961c-0.673-0.733-2.017-1.956-2.933-2.567c5.377-3.911,9.41-11,11.305-19.189l4.95,1.222
			c-0.122,0.367-0.55,0.611-1.222,0.611c-0.551,2.2-1.283,4.339-2.139,6.417c2.627,2.322,5.683,5.194,7.271,7.089L499.745,67.487z
			 M533.479,70.237c-2.199-2.506-6.355-6.233-10.145-9.35c-1.589,3.055-3.545,5.745-5.806,7.761c-0.733-0.733-2.2-1.711-3.178-2.2
			c4.278-3.605,7.395-9.961,8.8-17.111l4.95,1.161c-0.183,0.428-0.55,0.611-1.222,0.611c-0.489,2.139-1.162,4.277-1.956,6.294
			c3.972,3.178,8.923,7.333,11.489,9.961L533.479,70.237z"/>
	</g>
</g>
<g>
	<path fill="#FFFFFF" d="M64.952,131.786c-0.168,0.755-0.923,1.342-2.181,1.51c-2.349,11.323-6.04,20.046-26.925,24.827
		c-0.839-2.516-3.355-6.458-5.368-8.472c18.201-3.354,20.885-9.394,22.144-19.04L64.952,131.786z M73.843,166.93v12.246h32.125
		v9.143H31.904v-9.143h31.538V166.93H41.131v-8.976h56.617v8.976H73.843z M43.06,129.605v9.896h-9.897v-19.04h30.28v-9.059
		l12.666,0.755c-0.084,0.839-0.671,1.342-2.265,1.594v6.71h30.783v19.04h-10.4v-9.896H43.06z M73.675,130.359l12.162,0.588
		c-0.083,0.839-0.671,1.342-2.265,1.678v10.987c0,2.265,0.587,2.601,3.607,2.601h8.723c2.265,0,2.768-0.755,3.104-4.697
		c1.929,1.426,5.956,2.852,8.723,3.355c-1.174,7.8-3.858,9.813-10.736,9.813H85.754c-9.898,0-12.079-2.601-12.079-10.988V130.359z"
		/>
	<path fill="#FFFFFF" d="M151.429,145.29h-22.479v45.294h-9.981v-75.909h32.461V145.29z M142.034,121.971h-13.085v4.446h13.085
		V121.971z M128.949,138.076h13.085v-4.864h-13.085V138.076z M190.432,114.674v63.915c0,10.316-4.194,11.994-19.963,11.994
		c-0.252-2.097-1.174-5.284-2.181-7.885h-21.054v4.361h-9.143v-36.654h32.628v30.028c1.678,0,3.271,0.084,4.613,0.084
		c4.446,0,4.949,0,4.949-2.013v-33.048h-23.066v-30.783H190.432z M161.242,157.788h-14.008v5.116h14.008V157.788z M147.234,175.318
		h14.008v-5.284h-14.008V175.318z M180.282,121.971h-13.504v4.446h13.504V121.971z M166.778,138.244h13.504v-5.032h-13.504V138.244z
		"/>
	<path fill="#FFFFFF" d="M233.542,125.411v7.968h-33.131v-7.968H233.542z M270.029,147.47l6.375,2.517
		c-0.168,0.587-0.503,0.839-0.923,1.258c-2.6,9.479-6.878,17.111-12.666,23.234c5.033,3.271,10.988,5.704,17.447,7.297
		c-2.181,2.098-5.117,6.124-6.542,8.724c-7.046-2.097-13.253-5.2-18.621-9.227c-5.62,4.026-12.162,7.046-19.459,9.227
		c-1.006-2.433-3.271-6.459-5.2-8.724v4.362h-17.698v3.271h-8.556v-28.938h26.254v21.138c6.291-1.594,12.162-3.942,17.111-7.214
		c-3.858-4.277-7.129-9.227-9.73-14.763l8.64-2.768h-11.827v-9.059h2.936c-1.426-1.678-4.949-4.781-7.046-6.123v3.188h-26.086
		v-7.633h26.086v4.025c7.297-5.032,8.22-11.658,8.22-17.362v-10.065h28.351v18.956c0,2.349,0.168,2.601,1.09,2.601h2.181
		c1.091,0,1.426-1.091,1.594-8.472c1.762,1.51,5.62,2.936,8.136,3.606c-0.839,10.485-3.104,13.421-8.723,13.421h-4.949
		c-6.794,0-8.724-2.601-8.724-10.988V122.81h-9.478c0,5.788,0,17.866-10.484,24.996h30.531L270.029,147.47z M230.523,148.812v7.549
		h-26.086v-7.549H230.523z M230.355,114.087v7.633h-25.583v-7.633H230.355z M221.716,178.169v-9.729h-8.975v9.729H221.716z
		 M246.711,156.865c2.013,4.193,4.865,8.052,8.304,11.491c3.271-3.355,5.956-7.13,7.969-11.491H246.711z"/>
	<path fill="#FFFFFF" d="M320.606,125.411v7.968h-34.642v-7.968H320.606z M317,160.471v25.667h-18.453v3.271h-8.724v-28.938H317z
		 M290.074,144.871v-7.633h27.177v7.633H290.074z M290.074,156.361v-7.549h27.177v7.549H290.074z M317.335,114.087v7.633h-26.757
		v-7.633H317.335z M308.192,168.44h-9.646v9.729h9.646V168.44z M365.9,139.753v9.981h-17.698v40.849h-10.233v-40.849h-17.698v-9.981
		h17.698v-27.931l12.582,0.671c-0.084,0.838-0.756,1.342-2.349,1.594v25.666H365.9z"/>
	<path fill="#FFFFFF" d="M448.686,144.535h-30.112c4.948,17.362,14.679,30.531,31.958,36.319c-2.434,2.181-5.704,6.71-7.298,9.646
		c-16.104-6.291-25.667-17.866-31.79-34.055c-4.613,13.756-13.672,26.086-31.957,34.139c-1.51-2.852-4.529-6.543-7.381-8.808
		c20.466-8.304,28.35-21.892,31.286-37.241h-29.692v-10.4h31.118c0.587-7.466,0.503-15.099,0.587-22.647l13.337,0.839
		c-0.168,0.923-0.923,1.51-2.349,1.762c-0.084,6.458-0.168,13.252-0.755,20.047h33.048V144.535z"/>
	<path fill="#FFFFFF" d="M519.813,150.071c4.948,3.02,11.155,5.536,17.194,6.878c-2.097,1.845-4.864,5.368-6.206,7.717
		c-3.271-1.007-6.459-2.433-9.563-4.194v18.789h-7.549c7.297,2.013,14.678,4.193,19.459,5.871l-8.471,5.452
		c-5.453-2.181-14.931-5.368-24.409-7.969l4.11-3.354h-15.77l4.781,3.104c-0.336,0.335-0.922,0.503-1.678,0.587
		c-5.703,3.02-17.362,6.207-26.84,7.633c-1.427-1.846-4.027-4.781-5.872-6.459c7.046-0.922,15.35-2.852,21.305-4.864h-7.8v-18.286
		c-3.271,1.846-6.711,3.271-10.15,4.362c-1.258-2.181-3.941-5.536-5.871-7.298c6.711-1.594,13.672-4.445,18.957-7.968h-15.938
		v-6.878h20.047v-2.433h-9.646v-5.116h9.646v-2.433h-10.988v-2.097h-7.045v-14.26h30.027v-5.452l12.33,0.587
		c-0.084,0.922-0.67,1.342-2.181,1.677v3.188h30.448v14.26h-7.13v2.097h-11.155v2.433h9.813v5.116h-9.813v2.433h20.298v6.878
		H519.813z M470.66,127.675h8.891v-3.188h-8.891V127.675z M481.648,160.052h29.943v-2.349h-29.943V160.052z M481.648,167.097h29.943
		v-2.348h-29.943V167.097z M511.592,171.794h-29.943v2.517h29.943V171.794z M510.586,152.754c-0.923-0.839-1.762-1.761-2.601-2.684
		h-21.054c-0.838,0.923-1.761,1.845-2.684,2.684H510.586z M504.463,124.488h-13.421c-0.084,0.755-0.671,1.342-2.181,1.51v1.678
		h15.602V124.488z M488.861,133.211v2.433h15.602v-2.433H488.861z M488.861,140.76v2.433h15.602v-2.433H488.861z M522.496,124.488
		h-6.459c-0.084,0.839-0.67,1.342-2.18,1.51v1.678h8.639V124.488z"/>
</g>
</svg>
